<svg id="Layer_1" enable-background="new 0 0 512 512" height="512" viewBox="0 0 512 512" width="512" xmlns="http://www.w3.org/2000/svg"><g><g><g><g id="XMLID_1644_"><g id="XMLID_1660_"><g id="XMLID_1661_"><g id="XMLID_1662_"><g id="XMLID_1663_"><g id="XMLID_1664_"><g id="XMLID_1665_"><g id="XMLID_1666_"><g id="XMLID_1667_"><g id="XMLID_1668_"><g id="XMLID_1669_"><g id="XMLID_1670_"><g id="XMLID_1671_"><g id="XMLID_1672_"><g id="XMLID_1673_"><circle cx="256" cy="256" fill="#605858" r="256"/></g></g></g></g></g></g></g></g></g></g></g></g></g></g></g></g></g><path d="m512 256c0-.643-.02-1.281-.024-1.923l-121.998-121.998-257.899 257.899 121.997 121.998c.643.004 1.281.024 1.924.024 141.385 0 256-114.615 256-256z" fill="#3a3131"/><g><g><g><g id="XMLID_1493_"><g id="XMLID_1494_"><g id="XMLID_1495_"><g id="XMLID_1496_"><g id="XMLID_1497_"><g id="XMLID_1498_"><g id="XMLID_1499_"><g id="XMLID_1500_"><g id="XMLID_1501_"><g id="XMLID_1502_"><g id="XMLID_1503_"><g id="XMLID_1504_"><g id="XMLID_1521_"><g id="XMLID_1522_"><g id="XMLID_1523_"><circle cx="256" cy="256" fill="#93eaf9" r="182.512"/></g></g></g></g></g></g></g></g></g></g></g></g></g></g></g></g></g><g><g id="XMLID_941_"><g id="XMLID_942_"><g id="XMLID_943_"><g id="XMLID_944_"><g id="XMLID_945_"><g id="XMLID_946_"><g id="XMLID_947_"><g id="XMLID_948_"><g id="XMLID_949_"><g id="XMLID_950_"><g id="XMLID_951_"><g id="XMLID_952_"><g id="XMLID_983_"><g id="XMLID_1118_"><path d="m438.51 256c0 100.8-81.71 182.51-182.51 182.51v-365.02c100.8 0 182.51 81.71 182.51 182.51z" fill="#2dd0fa"/></g></g></g></g></g></g></g></g></g></g></g></g></g></g></g><path d="m312.719 193.028c0 12.27-9.946 22.205-22.205 22.205h-88.67c-6.135 0-11.684-2.481-15.704-6.501s-6.501-9.569-6.501-15.704c0-12.259-9.946-22.205-22.215-22.205h-32.245c-10.019 0-18.488-6.637-21.252-15.756 13.652-20.54 31.365-38.16 51.989-51.707h30.706c12.27 0 22.205 9.946 22.205 22.205s9.946 22.205 22.215 22.205h36.419c24.995.001 45.258 20.263 45.258 45.258z" fill="#f6c"/><path d="m312.72 193.03c0 12.27-9.95 22.2-22.21 22.2h-34.51v-67.46h11.46c25 0 45.26 20.26 45.26 45.26z" fill="#e83abf"/><path d="m417.151 341.752c-28.78 53.968-83.889 91.783-148.179 96.295v-30.475c0-4.879 1.979-9.307 5.182-12.5 3.193-3.204 7.621-5.182 12.5-5.182 9.768 0 15.588-7.915 15.588-17.682v-18.949c0-6.386-2.586-12.165-6.773-16.353-4.188-4.188-9.967-6.773-16.342-6.773-12.772 0-23.126-10.354-23.126-23.116v-9.527c0-12.762 10.354-23.116 23.126-23.116h40.871c9.768 0 17.682 7.915 17.682 17.682 0 12.018 9.736 21.755 21.755 21.755h27.879c15.86-.001 28.832 12.342 29.837 27.941z" fill="#27af77"/><path d="m194.232 332.833c0 17.432-14.132 31.564-31.564 31.564h-53.508c-12.888-17.421-22.749-37.228-28.8-58.627h86.81c14.939 0 27.062 12.113 27.062 27.063z" fill="#fdbf2d"/><path d="m435.911 225.137h-41.855c-18.185 0-32.915-14.74-32.915-32.925 0-9.087 3.685-17.316 9.642-23.273 5.947-5.957 14.175-9.642 23.273-9.642h16.761c12.353 19.734 21.032 42.002 25.094 65.84z" fill="#f2a50a"/></g></g></svg>