<svg height="512pt" viewBox="0 -1 512.00304 512" width="512pt" xmlns="http://www.w3.org/2000/svg"><path d="m86.574219 244.191406-.023438-233.652344h339.75l-.675781 233.515626-132.65625 91.589843c-22.253906 15.363281-51.6875 15.363281-73.941406 0zm0 0" fill="#fff"/><path d="m501.871094 500.824219h-491.742188v-309.410157l208.902344 144.230469c11.125 7.679688 24.046875 11.519531 36.96875 11.519531s25.84375-3.839843 36.96875-11.519531l208.902344-144.230469zm0 0" fill="#ece9e8"/><path d="m10.128906 191.414062 76.421875-47.261718v100.039062zm0 0" fill="#bfb3af"/><path d="m501.871094 191.414062-75.957032-47.503906-.289062 100.144532zm0 0" fill="#bfb3af"/><path d="m127.953125 52.6875h88.234375v88.234375h-88.234375zm0 0" fill="#ffde91"/><path d="m512 191.003906c0-.035156-.007812-.074218-.007812-.109375 0-.039062.003906-.078125.003906-.117187-.003906-.265625-.039063-.527344-.066406-.789063-.015626-.140625-.015626-.285156-.035157-.429687-.0625-.433594-.152343-.863282-.269531-1.28125-.019531-.078125-.054688-.148438-.078125-.226563-.105469-.339843-.21875-.679687-.359375-1.007812-.0625-.148438-.140625-.285157-.207031-.425781-.121094-.25-.242188-.5-.382813-.738282-.089844-.152344-.191406-.296875-.289062-.445312-.140625-.214844-.285156-.429688-.445313-.632813-.113281-.148437-.234375-.285156-.355469-.425781-.167968-.1875-.332031-.375-.511718-.550781-.136719-.136719-.277344-.261719-.421875-.386719-.183594-.167969-.378907-.328125-.578125-.480469-.152344-.117187-.308594-.230469-.46875-.335937-.097656-.066406-.183594-.140625-.28125-.203125l-71.1875-44.519531.371094-127.742188c.007812-2.6875-1.054688-5.273438-2.957032-7.179688-1.898437-1.902343-4.480468-2.976562-7.171875-2.976562h-339.75c-2.6875 0-5.261719 1.070312-7.160156 2.96875s-2.96875 4.472656-2.96875 7.160156l.011719 127.960938-71.632813 44.300781c-.105469.066406-.199219.148437-.304687.214844-.164063.109375-.324219.222656-.480469.34375-.199219.148437-.386719.308593-.574219.472656-.144531.128906-.289062.253906-.425781.390625-.179687.175781-.34375.363281-.511719.554688-.121094.140624-.246094.277343-.359375.421874-.160156.207032-.304687.421876-.449219.640626-.09375.144531-.199218.285156-.285156.4375-.148437.246093-.269531.503906-.394531.761718-.066406.136719-.140625.261719-.199219.402344-.171875.398438-.316406.804688-.4375 1.226562-.007812.039063-.011718.078126-.023437.117188-.105469.382812-.1875.777344-.246094 1.175781-.0195312.144531-.0234375.296875-.0390625.441407-.0273437.253906-.0625.503906-.06640625.757812 0 .046875.00390625.09375.00390625.140625 0 .039063-.0078125.078125-.0078125.117187v309.410157c0 .035156.00390625.070312.00390625.105469.00390625.210937.01953125.421874.03515625.632812.0078125.125.0117187.25.0273437.375.0195313.199219.0546878.398438.0898438.597656.023438.132813.039062.265625.066406.398438.039063.171875.089844.34375.136719.519531.039063.148437.074219.300781.121094.449219.046875.144531.105469.285156.15625.429687.066406.171875.125.34375.199219.511719.050781.117188.113281.234375.167968.355469.089844.183593.179688.367187.277344.546875.058594.105468.128906.207031.191406.3125.109375.183594.222656.367187.34375.542968.019532.027344.035156.058594.058594.089844.042969.058594.089844.105469.132812.164063.167969.222656.339844.441406.523438.648437.089844.101563.179688.203125.273438.300782.171874.179687.351562.351562.539062.519531.09375.085937.1875.179687.289062.261719.269532.230468.554688.445312.847657.644531.085937.054687.171875.101562.257812.152343.230469.148438.464844.285157.707031.414063.113282.058594.226563.109375.335938.164063.230469.105468.460938.207031.699219.300781.113281.042969.222656.085937.339843.121093.246094.085938.5.160157.753907.226563.109375.03125.214843.0625.324219.085937.269531.058594.546874.105469.824218.144532.097656.011718.191406.03125.289063.042968.34375.039063.699219.0625 1.054687.0625.023438 0 .046875.003907.070313.003907h.027343 491.707032c.097656 0 .191406-.011719.289062-.015625.199219-.003906.394532-.011719.589844-.027344.160156-.015625.316406-.035156.472656-.058594.164063-.019531.328125-.042968.492188-.074218.171875-.03125.34375-.070313.515625-.113282.144531-.03125.289062-.066406.433593-.109375.171876-.050781.34375-.105469.515626-.164062.140624-.050781.28125-.097657.421874-.152344.15625-.066406.316407-.132813.46875-.203125.148438-.066406.296876-.136719.441407-.214844.136719-.070312.273437-.144531.40625-.222656.15625-.089844.308593-.179688.460937-.277344.117188-.078125.234375-.160156.347656-.242187.152344-.105469.304688-.21875.453126-.335938.109374-.089843.214843-.179687.324218-.273437.136719-.117188.273438-.242188.40625-.371094.113282-.109375.222656-.222656.332032-.339844.113281-.117187.226562-.238281.332031-.367187.125-.144531.238281-.292969.355469-.445313.058593-.078125.128906-.152344.1875-.234375.023437-.035156.042968-.070312.0625-.101562.121093-.167969.226562-.347657.335937-.523438.066406-.109375.140625-.21875.203125-.328125.09375-.175781.179688-.355468.269531-.535156.058594-.121094.121094-.242188.175781-.367188.074219-.167968.132813-.339843.195313-.507812.054687-.144531.113281-.285156.160156-.429688.046875-.152343.085938-.308593.125-.464843.046875-.167969.09375-.335938.132813-.507813.027344-.136718.046875-.277344.070312-.414062.03125-.191406.066406-.386719.089844-.578125.011719-.128907.019531-.261719.027344-.394531.015625-.203126.03125-.410157.03125-.613282 0-.039062.007812-.078125.007812-.117187v-309.414063zm-491.746094 19.300782 60.542969 41.8125c.042969.03125.09375.050781.140625.082031l132.335938 91.371093c1.546874 1.066407 3.125 2.070313 4.730468 3.011719-1.183594.65625-2.359375 1.332031-3.515625 2.054688-54.425781 33.992187-155.222656 104.675781-194.234375 132.207031zm204.964844 155.511718c18.953125-11.839844 43.4375-11.820312 62.371094.046875 49.6875 31.136719 138.628906 93.4375 182.496094 124.425781h-428.074219c44.046875-31.007812 133.371093-93.347656 183.207031-124.472656zm73.125-17.117187c-1.3125-.820313-2.648438-1.589844-4.003906-2.332031 1.488281-.878907 2.949218-1.808594 4.382812-2.796876l193.023438-133.265624v270.496093c-38.90625-27.554687-139.175782-98.117187-193.402344-132.101562zm137.464844-124.386719.183594-62.566406 47.449218 29.679687zm-19.664063-204.054688-.355469 123.214844-.273437 94.851563-8.851563 6.109375-119.449218 82.46875c-.136719.09375-.28125.183594-.421875.28125-18.628907 12.601562-43.476563 12.511718-62.011719-.28125l-128.082031-88.433594-.019531-218.210938zm-339.722656 204.214844-47.796875-33 47.796875-29.558594zm0 0"/><path d="m127.953125 150.640625h88.234375c5.589844 0 10.125-4.53125 10.125-10.125v-88.234375c0-5.59375-4.535156-10.128906-10.125-10.128906h-88.234375c-5.59375 0-10.128906 4.535156-10.128906 10.128906v88.234375c0 5.59375 4.535156 10.125 10.128906 10.125zm10.125-88.234375h67.980469v67.980469h-67.980469zm0 0"/><path d="m270.441406 69.222656h113.964844c5.59375 0 10.125-4.535156 10.125-10.128906 0-5.589844-4.53125-10.125-10.125-10.125h-113.964844c-5.589844 0-10.125 4.535156-10.125 10.125 0 5.59375 4.535156 10.128906 10.125 10.128906zm0 0"/><path d="m341.363281 182.398438h-170.371093c-5.589844 0-10.125 4.53125-10.125 10.125s4.535156 10.128906 10.125 10.128906h170.371093c5.59375 0 10.128907-4.535156 10.128907-10.128906s-4.535157-10.125-10.128907-10.125zm0 0"/><path d="m341.363281 219.28125h-170.371093c-5.589844 0-10.125 4.535156-10.125 10.128906s4.535156 10.125 10.125 10.125h170.371093c5.59375 0 10.128907-4.53125 10.128907-10.125s-4.535157-10.128906-10.128907-10.128906zm0 0"/><path d="m270.441406 105.773438h113.964844c5.59375 0 10.125-4.535157 10.125-10.128907s-4.53125-10.125-10.125-10.125h-113.964844c-5.589844 0-10.125 4.53125-10.125 10.125s4.535156 10.128907 10.125 10.128907zm0 0"/><path d="m270.441406 142.324219h113.964844c5.59375 0 10.125-4.535157 10.125-10.128907s-4.53125-10.125-10.125-10.125h-113.964844c-5.589844 0-10.125 4.53125-10.125 10.125s4.535156 10.128907 10.125 10.128907zm0 0"/><path d="m49.414062 374.25c5.59375 0 10.128907-4.535156 10.128907-10.128906v-66.863282c0-5.59375-4.535157-10.128906-10.128907-10.128906-5.589843 0-10.125 4.535156-10.125 10.128906v66.863282c0 5.59375 4.53125 10.128906 10.125 10.128906zm0 0"/><path d="m53.511719 394.503906-.230469-.066406c-5.363281-1.605469-11 1.4375-12.605469 6.792969-1.605469 5.359375 1.4375 11.003906 6.792969 12.609375l.230469.066406c.96875.292969 1.949219.429688 2.910156.429688 4.359375 0 8.382813-2.835938 9.695313-7.222657 1.605468-5.359375-1.433594-11.003906-6.792969-12.609375zm0 0"/></svg>