<svg height="512pt" viewBox="-6 0 512 512.00162" width="512pt" xmlns="http://www.w3.org/2000/svg"><path d="m10.226562 233.777344c-3.351562 105.648437 46.054688 210.039062 145.921876 260.125 1.035156.542968 2.070312 1.085937 3.152343 1.613281 33.941407 16.484375 74.804688 2.335937 91.289063-31.605469 1.746094-3.59375 3.167968-7.296875 4.234375-11.046875 0-8.832031-5.925781-20.191406-13.167969-25.246093l-63.882812-44.582032c-11.554688-8.066406-27.398438-6.96875-37.296876 3.0625-.117187.117188-.234374.234375-.351562.355469-3.828125 3.933594-10.148438 3.804687-13.753906-.332031-16.816406-19.300782-29.589844-41.558594-37.839844-65.382813-8.246094-23.816406-11.957031-49.160156-10.671875-74.707031.273437-5.488281 5.167969-9.496094 10.613281-8.765625.164063.019531.328125.042969.492188.0625 13.976562 1.765625 27.097656-7.167969 31.191406-20.644531l24.628906-81.085938c2.421875-7.972656-.511718-16.605468-7.289062-21.453125-3.109375-2.304687-6.519532-4.335937-10.109375-6.082031-32.859375-15.957031-72.289063-3.207031-89.675781 28.457031-.542969 1.03125-1.085938 2.066407-1.613282 3.152344-.527344 1.082031-1.003906 2.148437-1.480468 3.214844-3.890626 8.285156-5.460938 12.949219-8.433594 21.410156-.003906-.003906-15.09375 42.324219-15.957032 69.480469zm0 0" fill="#bfb3af"/><path d="m365.96875 10.578125h-138.234375c-12.824219 0-23.222656 10.398437-23.222656 23.226563v129.734374c0 12.824219 10.398437 23.222657 23.222656 23.222657h31.835937l40.539063 42.128906 36.539063-42.128906h130.933593c12.828125 0 23.226563-10.398438 23.226563-23.222657v-129.734374c0-12.828126-10.398438-23.226563-23.226563-23.226563h-21.785156" fill="#8cbcff"/><g fill="#fff"><path d="m295.484375 95.746094c0 10.261718-8.320313 18.578125-18.578125 18.578125-10.261719 0-18.582031-8.316407-18.582031-18.578125 0-10.261719 8.320312-18.578125 18.582031-18.578125 10.257812 0 18.578125 8.316406 18.578125 18.578125zm0 0"/><path d="m366.238281 95.746094c0 10.261718-8.316406 18.578125-18.578125 18.578125-10.261718 0-18.582031-8.316407-18.582031-18.578125 0-10.261719 8.320313-18.578125 18.582031-18.578125 10.261719 0 18.578125 8.316406 18.578125 18.578125zm0 0"/><path d="m436.992188 95.746094c0 10.261718-8.316407 18.578125-18.578126 18.578125-10.261718 0-18.578124-8.316407-18.578124-18.578125 0-10.261719 8.316406-18.578125 18.578124-18.578125 10.261719 0 18.578126 8.316406 18.578126 18.578125zm0 0"/></g><path d="m147.324219 448.945312c.066406.070313 28.316406 24.390626 50.523437 23.789063" fill="#bfb3af"/><path d="m247.414062 418.882812-63.882812-44.582031c-15.742188-10.988281-36.773438-9.25-50.097656 4.121094-15.628906-18.089844-27.539063-38.761719-35.394532-61.457031-7.847656-22.667969-11.269531-46.253906-10.171874-70.117188 18.722656 2.285156 36.335937-9.347656 41.914062-27.722656l24.628906-81.082031c3.671875-12.085938-.746094-25.136719-10.988281-32.511719-3.527344-2.605469-7.441406-4.960938-11.640625-7.003906-37.613281-18.261719-82.804688-3.914063-102.890625 32.664062-.027344.054688-.058594.105469-.085937.15625-.59375 1.128906-1.183594 2.261719-1.757813 3.445313-.554687 1.140625-1.0625 2.265625-1.578125 3.417969-3.824219 8.148437-5.570312 13.121093-8.207031 20.632812l-.558594 1.589844c-.640625 1.789062-15.632813 44.136718-16.53125 72.542968-3.730469 117.433594 54.269531 220.644532 151.375 269.390626 1.101563.582031 2.203125 1.15625 3.359375 1.71875 10.835938 5.261718 22.476562 7.914062 34.179688 7.914062 8.632812 0 17.300781-1.445312 25.699218-4.351562 19.78125-6.847657 35.710938-20.992188 44.855469-39.824219 2-4.117188 3.636719-8.386719 4.859375-12.6875.257812-.894531.386719-1.824219.386719-2.753907 0-12.148437-7.511719-26.550781-17.472657-33.5zm-5.875 40.148438c-6.800781 14-18.636718 24.511719-33.339843 29.601562-14.699219 5.089844-30.503907 4.148438-44.503907-2.652343-.980468-.476563-1.917968-.96875-2.855468-1.460938-.058594-.035156-.117188-.066406-.179688-.09375-90.0625-45.171875-143.851562-141.273437-140.375-250.808593.800782-25.246094 15.226563-66.019532 15.386719-66.464844l.574219-1.636719c2.617187-7.453125 4.058594-11.558594 7.476562-18.832031.027344-.058594.070313-.148438.097656-.210938.425782-.957031.851563-1.917968 1.324219-2.890625.464844-.957031.945313-1.867187 1.425781-2.777343 14.941407-27.117188 48.492188-37.738282 76.417969-24.175782 3.105469 1.511719 5.96875 3.230469 8.511719 5.113282.046875.035156.09375.070312.140625.101562 3.269531 2.339844 4.683594 6.5 3.515625 10.347656l-24.628906 81.085938c-2.691406 8.867187-11.417969 14.710937-20.308594 13.582031l-.410156-.050781c-5.394532-.722656-10.882813.847656-15.050782 4.316406-4.144531 3.449219-6.679687 8.519531-6.949218 13.917969-1.34375 26.722656 2.429687 53.136719 11.214844 78.503906 8.792968 25.398437 22.171874 48.511719 39.761718 68.699219 3.546875 4.074218 8.675782 6.492187 14.0625 6.640625 5.402344.148437 10.695313-2.003907 14.496094-5.910157l.292969-.296874c6.292969-6.378907 16.773437-7.1875 24.378906-1.878907l63.882813 44.582031c4.226562 2.949219 8.238281 10.265626 8.796874 15.742188-.84375 2.671875-1.902343 5.324219-3.15625 7.90625zm0 0"/><path d="m467.582031.0351562h-21.785156c-5.558594 0-10.0625 4.5039058-10.0625 10.0624998s4.503906 10.0625 10.0625 10.0625h21.785156c7.257813 0 13.164063 5.90625 13.164063 13.164063v129.730469c0 7.257812-5.90625 13.164062-13.164063 13.164062h-130.933593c-2.917969 0-5.691407 1.265625-7.601563 3.46875l-29.324219 33.808594-32.902344-34.191406c-1.894531-1.972657-4.515624-3.085938-7.25-3.085938h-31.835937c-7.257813 0-13.160156-5.90625-13.160156-13.164062v-129.730469c0-7.257813 5.902343-13.164063 13.160156-13.164063h138.234375c5.558594 0 10.0625-4.507812 10.0625-10.0625 0-5.558594-4.503906-10.0624998-10.0625-10.0624998h-138.234375c-18.351563 0-33.285156 14.9335938-33.285156 33.2890628v129.730469c0 18.355468 14.933593 33.289062 33.285156 33.289062h27.554687l37.570313 39.042969c1.898437 1.972656 4.519531 3.085937 7.25 3.085937.085937 0 .175781-.003906.261719-.003906 2.824218-.074219 5.488281-1.332031 7.339844-3.46875l33.527343-38.65625h126.34375c18.355469 0 33.285157-14.933594 33.285157-33.289062v-129.730469c.003906-18.355469-14.929688-33.2890628-33.285157-33.2890628zm0 0"/><path d="m248.261719 95.265625c0 15.792969 12.847656 28.640625 28.644531 28.640625 15.792969 0 28.640625-12.847656 28.640625-28.640625 0-15.796875-12.847656-28.644531-28.640625-28.644531-15.796875 0-28.644531 12.847656-28.644531 28.644531zm37.160156 0c0 4.695313-3.820313 8.515625-8.515625 8.515625-4.699219 0-8.519531-3.820312-8.519531-8.515625 0-4.699219 3.820312-8.519531 8.519531-8.519531 4.695312 0 8.515625 3.820312 8.515625 8.519531zm0 0"/><path d="m347.660156 66.621094c-15.792968 0-28.644531 12.847656-28.644531 28.644531 0 15.792969 12.851563 28.640625 28.644531 28.640625 15.792969 0 28.640625-12.847656 28.640625-28.640625 0-15.796875-12.847656-28.644531-28.640625-28.644531zm0 37.160156c-4.695312 0-8.519531-3.820312-8.519531-8.515625 0-4.699219 3.820313-8.519531 8.519531-8.519531 4.695313 0 8.515625 3.820312 8.515625 8.519531 0 4.695313-3.820312 8.515625-8.515625 8.515625zm0 0"/><path d="m418.414062 123.90625c15.792969 0 28.640626-12.847656 28.640626-28.640625 0-15.796875-12.847657-28.644531-28.640626-28.644531-15.792968 0-28.640624 12.847656-28.640624 28.644531 0 15.792969 12.847656 28.640625 28.640624 28.640625zm0-37.160156c4.695313 0 8.519532 3.820312 8.519532 8.519531 0 4.695313-3.824219 8.515625-8.519532 8.515625-4.695312 0-8.515624-3.820312-8.515624-8.515625 0-4.699219 3.820312-8.519531 8.515624-8.519531zm0 0"/><path d="m403.1875 19.699219.214844.066406c.96875.289063 1.945312.429687 2.90625.429687 4.324218 0 8.320312-2.808593 9.628906-7.164062 1.605469-5.320312-1.410156-10.933594-6.730469-12.535156l-.214843-.066406c-5.324219-1.601563-10.933594 1.414062-12.535157 6.734374-1.601562 5.320313 1.410157 10.933594 6.730469 12.535157zm0 0"/><path d="m197.574219 462.195312c-14.957031.441407-36.964844-15.566406-43.582031-21.269531-3.902344-3.460937-9.882813-3.371093-13.683594.324219-3.984375 3.871094-4.074219 10.242188-.199219 14.226562.265625.273438 30.378906 26.851563 56.953125 26.851563.351562 0 .707031-.003906 1.054688-.015625 5.558593-.148438 9.9375-4.777344 9.789062-10.332031-.148438-5.554688-4.75-9.921875-10.332031-9.785157zm0 0"/><path d="m117.882812 414.984375-.183593-.054687c-5.328125-1.59375-10.933594 1.433593-12.523438 6.757812-1.59375 5.328125 1.433594 10.933594 6.757813 12.523438l.1875.054687c.960937.289063 1.929687.425781 2.886718.425781 4.332032 0 8.332032-2.820312 9.636719-7.183594 1.589844-5.324218-1.433593-10.929687-6.761719-12.523437zm0 0"/></svg>