<?xml version="1.0"?>
<svg xmlns="http://www.w3.org/2000/svg" xmlns:xlink="http://www.w3.org/1999/xlink" version="1.1" id="Capa_1" x="0px" y="0px" viewBox="0 0 477.867 477.867" style="enable-background:new 0 0 477.867 477.867;" xml:space="preserve" width="512px" height="512px"><g><g>
	<g>
		<path d="M358.4,0H119.467c-28.277,0-51.2,22.923-51.2,51.2v375.467c0,28.277,22.923,51.2,51.2,51.2H358.4    c28.277,0,51.2-22.923,51.2-51.2V51.2C409.6,22.923,386.677,0,358.4,0z M375.467,426.667c0,9.426-7.641,17.067-17.067,17.067    H119.467c-9.426,0-17.067-7.641-17.067-17.067v-34.133h273.067V426.667z M375.467,358.4H102.4V119.467h273.067V358.4z     M375.467,85.333H102.4V51.2c0-9.426,7.641-17.067,17.067-17.067H358.4c9.426,0,17.067,7.641,17.067,17.067V85.333z" data-original="#000000" class="active-path" data-old_color="#000000" fill="#B49064"/>
	</g>
</g><g>
	<g>
		<path d="M250.58,158.601c-6.614-6.387-17.099-6.387-23.712,0l-85.333,85.333c-6.663,6.665-6.663,17.468,0,24.132    c6.665,6.663,17.468,6.663,24.132,0l85.333-85.333C257.547,175.953,257.36,165.149,250.58,158.601z" data-original="#000000" class="active-path" data-old_color="#000000" fill="#B49064"/>
	</g>
</g><g>
	<g>
		<path d="M335.913,192.734c-6.614-6.387-17.099-6.387-23.712,0l-85.333,85.333c-5.127,6.281-3.566,16.577,0,24.132    c6.664,6.663,17.468,6.663,24.132,0l85.333-85.333C342.881,210.086,342.693,199.282,335.913,192.734z" data-original="#000000" class="active-path" data-old_color="#000000" fill="#B49064"/>
	</g>
</g></g> </svg>
