<svg height="512pt" viewBox="-52 0 512 512" width="512pt" xmlns="http://www.w3.org/2000/svg"><path d="m361.601562 310.167969c11.367188-17.703125 20.695313-36.65625 27.410157-56.59375 5.613281-16.65625 9.566406-34.171875 9.566406-50.328125 0-103.644532-90.488281-194.132813-194.136719-194.132813-103.644531 0-194.132812 90.488281-194.132812 194.132813 0 16.128906 3.941406 33.613281 9.539062 50.246094 6.738282 20.023437 16.117188 39.046874 27.550782 56.8125 31.851562 49.496093 125.4375 190.617187 157.046874 190.617187 31.90625 0 125.460938-141.382813 157.15625-190.753906zm0 0" fill="#ff6c6c"/><path d="m204.230469 311.992188c.695312 0 1.390625-.015626 2.085937-.027344-1.925781 0-3.84375-.011719-5.765625-.03125 1.222657.035156 2.449219.058594 3.679688.058594zm0 0" fill="#fff"/><path d="m236.941406 231.421875c29.328125 0 45.863282 24.621094 53.960938 44.289063 21.648437-21.96875 35.015625-52.125 35.015625-85.40625 0-67.207032-54.480469-121.6875-121.6875-121.6875-67.203125 0-121.6875 54.480468-121.6875 121.6875 0 34.726562 14.546875 66.054687 37.882812 88.226562 6.53125-20.046875 21.269531-47.109375 52.015625-47.109375" fill="#fff"/><path d="m172.441406 231.421875c-30.746094 0-45.484375 27.0625-52.015625 47.109375 20.992188 19.949219 49.101563 32.480469 80.125 33.402344 1.921875.019531 3.84375.03125 5.765625.03125 33.09375-.554688 62.96875-14.320313 84.585938-36.25-8.097656-19.671875-24.632813-44.292969-53.960938-44.292969" fill="#ffde91"/><path d="m252.128906 167.996094v28.210937c0 26.148438-21.199218 47.347657-47.351562 47.347657-26.148438 0-47.347656-21.199219-47.347656-47.347657v-48.996093" fill="#f2d1a5"/><path d="m252.128906 173.546875-37.382812-.28125c-8.238282.058594-16.878906-1.65625-25.128906-4.808594-8.25-3.160156-16.113282-7.757812-22.792969-13.46875-9.878907-8.445312-17.179688-19.320312-19.363281-31.566406h82.703124c12.132813 0 21.964844 9.835937 21.964844 21.964844zm0 0" fill="#bc9979"/><path d="m399.382812 146.105469c-1.6875-5.3125-7.367187-8.257813-12.671874-6.570313-5.316407 1.683594-8.257813 7.359375-6.574219 12.671875 5.398437 17.027344 8.132812 34.53125 8.132812 52.023438 0 13.453125-3.039062 29.300781-9.035156 47.105469-6.273437 18.613281-15.132813 36.902343-26.339844 54.359374-15.796875 24.605469-46.945312 72.039063-78.0625 113.265626-32.132812 42.566406-50.566406 60.273437-60.507812 67.636718v-39.539062c0-5.578125-4.519531-10.097656-10.09375-10.097656s-10.09375 4.519531-10.09375 10.097656v39.488281c-9.90625-7.378906-28.257813-25.082031-60.285157-67.472656-31.125-41.199219-62.339843-88.640625-78.175781-113.25-11.28125-17.53125-20.191406-35.890625-26.476562-54.566407-5.980469-17.773437-9.011719-33.59375-9.011719-47.027343.003906-98.042969 86.003906-184.039063 184.042969-184.039063 51.390625 0 101.527343 23.542969 137.558593 64.589844 3.675782 4.1875 10.054688 4.605469 14.246094.925781 4.1875-3.675781 4.605469-10.054687.925782-14.246093-39.863282-45.414063-95.53125-71.460938-152.730469-71.460938-52.058594 0-104.207031 22.289062-143.074219 61.15625s-61.15625 91.015625-61.15625 143.074219c0 15.625 3.386719 33.613281 10.066406 53.464843 6.816406 20.253907 16.449219 40.125 28.628906 59.054688 15.992188 24.851562 47.523438 72.765625 79.046876 114.492188 22.378906 29.621093 39.011718 48.546874 51.664062 60.566406h-92.796875c-5.574219 0-10.097656 4.523437-10.097656 10.097656s4.523437 10.09375 10.097656 10.09375h259.761719c5.574218 0 10.09375-4.519531 10.09375-10.09375s-4.519532-10.097656-10.09375-10.097656h-97.195313c12.691407-12.035156 29.359375-30.996094 51.769531-60.683594 31.519532-41.757812 62.988282-89.675781 78.9375-114.519531 12.101563-18.847657 21.683594-38.640625 28.484376-58.824219 6.699218-19.882812 10.09375-37.898438 10.09375-53.550781 0-19.566407-3.054688-39.121094-9.078126-58.125zm0 0"/><path d="m336.015625 191.289062c0-72.664062-59.121094-131.785156-131.785156-131.785156-72.664063 0-131.78125 59.121094-131.78125 131.785156 0 36.472657 14.570312 70.40625 41.023437 95.542969 22.046875 20.953125 50.492188 33.550781 80.664063 35.847657v44.289062c0 5.574219 4.519531 10.09375 10.09375 10.09375s10.09375-4.519531 10.09375-10.09375v-44.296875c31.734375-2.394531 61.234375-16.027344 83.765625-38.890625 24.457031-24.8125 37.925781-57.664062 37.925781-92.492188zm-131.785156-111.59375c61.53125 0 111.59375 50.0625 111.59375 111.59375 0 24.589844-7.929688 48.011719-22.566407 67.300782-.460937-.800782-.933593-1.582032-1.40625-2.355469-.148437-.238281-.296874-.46875-.445312-.703125-.339844-.542969-.683594-1.085938-1.035156-1.617188-.183594-.28125-.367188-.558593-.554688-.835937-.320312-.480469-.644531-.957031-.972656-1.429687-.199219-.277344-.394531-.558594-.589844-.835938-.335937-.46875-.671875-.929688-1.015625-1.386719-.1875-.253906-.375-.511719-.566406-.761719-.394531-.519531-.796875-1.03125-1.199219-1.535156-.136718-.171875-.273437-.351562-.414062-.523437-.539063-.667969-1.089844-1.324219-1.644532-1.964844-.132812-.15625-.269531-.304687-.40625-.460937-.425781-.484376-.851562-.960938-1.28125-1.429688-.207031-.222656-.414062-.441406-.621093-.660156-.371094-.390625-.746094-.78125-1.121094-1.164063-.222656-.226562-.449219-.453125-.675781-.675781-.371094-.367188-.746094-.730469-1.125-1.085938-.222656-.210937-.445313-.425781-.671875-.632812-.410157-.378906-.824219-.75-1.242188-1.113281-.191406-.171875-.382812-.34375-.578125-.511719-.609375-.523438-1.222656-1.035156-1.84375-1.53125-.058594-.050781-.121094-.09375-.179687-.140625-.566407-.449219-1.132813-.882813-1.707031-1.308594-.214844-.160156-.433594-.3125-.648438-.46875-.425781-.304687-.851562-.609375-1.28125-.902343-.246094-.171876-.496094-.335938-.746094-.5-.410156-.273438-.824218-.539063-1.238281-.800782-.253906-.160156-.507813-.320312-.761719-.472656-.433594-.265625-.871094-.519531-1.308594-.773438-.234374-.132812-.46875-.273437-.707031-.402343-.550781-.308594-1.105469-.605469-1.664062-.894531-.125-.0625-.246094-.132813-.367188-.191407-.679687-.347656-1.367187-.675781-2.0625-.992187-.203125-.09375-.410156-.183594-.617187-.273438-.492188-.21875-.988282-.433594-1.488282-.640625-.261718-.105469-.523437-.207031-.785156-.3125-.453125-.175781-.90625-.351562-1.363281-.515625-.277344-.101562-.554687-.199218-.832031-.296875-.375-.128906-.753906-.257812-1.132813-.378906 4.617188-8.269531 7.261719-17.789063 7.261719-27.917969v-50.816406c0-17.679688-14.378906-32.0625-32.058594-32.0625h-82.703125c-2.988281 0-5.820312 1.324219-7.742187 3.613281-1.914063 2.292969-2.722656 5.316407-2.195313 8.253907 1.457031 8.1875 4.796875 16.035156 9.8125 23.273437v47.742187c0 10.125 2.640625 19.640626 7.257813 27.910157-.109375.035156-.214844.078125-.328125.113281-.460938.15625-.925781.320312-1.386719.488281-.28125.101563-.566406.207031-.847656.316407-.457032.179687-.910156.363281-1.363282.550781-.265624.113281-.53125.222656-.792968.335937-.507813.222656-1.011719.457032-1.511719.695313-.199219.09375-.398437.183593-.597656.277343-.683594.335938-1.367188.6875-2.039063 1.054688-.175781.097656-.34375.199219-.519531.292969-.503906.28125-1.003906.570312-1.5.867187-.253906.148438-.5.304688-.746094.460938-.417969.257812-.835937.523437-1.246093.792968-.261719.171876-.523438.347657-.78125.527344-.398438.273438-.800782.550782-1.195313.835938-.25.183594-.5.363281-.75.546875-.421875.3125-.839844.636719-1.253906.964843-.210938.167969-.421875.328126-.632813.496094-.613281.496094-1.21875 1.003906-1.820312 1.53125-.089844.078125-.183594.167969-.273438.25-.511718.453125-1.019531.914063-1.519531 1.390625-.210937.199219-.417969.40625-.628906.609375-.378907.371094-.757813.742188-1.128907 1.121094-.230468.234375-.457031.472656-.679687.710938-.355469.371093-.703125.75-1.050781 1.132812-.222656.242188-.445313.488281-.664063.738281-.359375.40625-.714843.824219-1.066406 1.242188-.195313.230469-.394531.460937-.589844.699219-.449219.550781-.894531 1.113281-1.335937 1.683593-.085938.109375-.175782.21875-.261719.332031-.523437.679688-1.035156 1.378907-1.539063 2.085938-.164062.230469-.324218.472656-.488281.707031-.34375.492188-.6875.988281-1.023437 1.496094-.1875.28125-.371094.570313-.558594.859375-.308594.476562-.613281.957031-.914062 1.445312-.1875.296876-.371094.597657-.554688.902344-.304688.507813-.605469 1.019532-.90625 1.539063-.167969.289062-.332031.574219-.5.867187-.347656.621094-.6875 1.25-1.027344 1.886719-.105468.195313-.214844.390625-.316406.589844-.417969.792969-.828125 1.597656-1.230469 2.417969-15.816406-19.683594-24.386719-43.929688-24.386719-69.667969.007813-61.535157 50.066407-111.597657 111.597657-111.597657zm2.015625 223.15625c-1.835938 0-3.667969-.011718-5.5-.03125-25.242188-.773437-49.332032-10.054687-68.527344-26.285156.054688-.140625.113281-.285156.167969-.425781.105469-.269531.214843-.535156.324219-.800781.121093-.296875.246093-.59375.371093-.890625.109375-.261719.21875-.519531.332031-.78125.132813-.3125.273438-.621094.410157-.933594.109375-.242187.214843-.488281.324219-.726563.167968-.359374.335937-.71875.503906-1.078124.09375-.195313.183594-.390626.277344-.582032.261718-.542968.53125-1.085937.804687-1.625.082031-.160156.164063-.3125.246094-.46875.203125-.390625.40625-.78125.613281-1.167968.117188-.210938.234375-.421876.351562-.632813.183594-.332031.367188-.660156.554688-.988281.128906-.222656.257812-.445313.390625-.667969.183594-.3125.367187-.621094.554687-.929687.140626-.226563.277344-.453126.421876-.679688.1875-.304688.378906-.605469.574218-.902344.144532-.222656.289063-.441406.433594-.660156.203125-.300781.40625-.601562.613281-.898438.144531-.210937.292969-.425781.441407-.636718.21875-.304688.441406-.605469.664062-.90625.144531-.195313.289062-.390625.433594-.582032.257812-.335937.519531-.667968.785156-.996093.121094-.148438.238281-.304688.359375-.453125.386719-.472656.78125-.9375 1.183594-1.398438.074219-.085937.15625-.167968.230469-.25.332031-.375.667968-.742187 1.011718-1.101562.148438-.160156.304688-.3125.457032-.46875.273437-.28125.546874-.558594.828124-.832032.179688-.171874.359376-.339843.539063-.507812.265625-.25.53125-.496094.804687-.742188.191407-.167968.382813-.335937.578126-.5.269531-.234374.542968-.464843.820312-.691406.199219-.160156.398438-.320312.601562-.480468.28125-.222657.570313-.4375.859376-.652344.203124-.152344.40625-.300782.613281-.449219.300781-.214844.609375-.421875.921875-.628906.199218-.132813.394531-.269531.59375-.394531.351562-.226563.710937-.4375 1.066406-.652344.171875-.097656.335938-.203125.507812-.300782.53125-.304687 1.070313-.59375 1.621094-.871093.0625-.03125.128906-.058594.191406-.089844.492188-.242187.988282-.476563 1.492188-.699219.195312-.082031.394531-.160156.589844-.242187.378906-.15625.761718-.3125 1.152344-.460938.230468-.085937.46875-.164062.703124-.246093.363282-.125.726563-.25 1.097657-.367188.253906-.078125.507812-.148438.761719-.222656.363281-.105469.734374-.203125 1.105468-.296875.261719-.066407.527344-.128907.792969-.1875.378906-.085938.761719-.164063 1.144531-.238281.269532-.050782.535156-.101563.804688-.148438.402344-.066406.8125-.121094 1.222656-.175781.261719-.035157.519531-.074219.785156-.101563.453125-.050781.917969-.085937 1.382813-.117187.011719-.003907.023437-.003907.035156-.003907 9.714844 7.527344 21.894531 12.027344 35.109375 12.027344 13.210938 0 25.382812-4.496094 35.097656-12.019531.402344.03125.808594.058594 1.207032.097656.257812.027344.515624.0625.773437.097657.410156.050781.816406.101562 1.222656.167968.265625.042969.527344.085938.789063.132813.390625.070312.777344.148437 1.160156.226562.261719.054688.519531.113281.773438.171875.386718.089844.761718.1875 1.140624.289063.246094.066406.492188.132812.734376.203125.394531.113281.78125.238281 1.167968.363281.214844.070313.433594.136719.644532.210937.457031.160157.914062.332032 1.363281.507813.128906.050781.265625.097656.398437.152344.578125.234375 1.152344.484375 1.714844.746093.125.054688.242188.117188.363281.175782.4375.210937.875.421875 1.300781.648437.191407.097657.375.203125.5625.304688.355469.195312.707032.390625 1.054688.59375.207031.117187.40625.242187.605469.363281.328125.199219.648437.402344.96875.605469.203125.132812.40625.265625.609375.402343.3125.210938.621094.425782.925781.644532.195313.136718.390625.277344.582031.417968.3125.230469.621094.46875.925782.707032.179687.136718.355468.273437.53125.414062.332031.265625.660156.542969.988281.820313.140625.117187.28125.230469.417969.351562.925781.804688 1.820312 1.644531 2.6875 2.515625.125.125.25.257813.375.386719.300781.308594.601562.621094.894531.9375.152343.164063.304687.332031.457031.5.257812.289063.519531.578125.773438.871094.15625.179687.316406.363281.472656.550781.242187.28125.480468.570312.71875.859375.15625.191406.308594.382813.460937.574219.234375.292968.464844.589844.695313.886718.144531.1875.292968.378907.4375.574219.238281.3125.46875.625.695312.941407.132813.179687.261719.359374.390625.539062.261719.367188.515625.734375.769531 1.105469.089844.132812.183594.269531.277344.402343.335938.5.667969 1.007813.996094 1.515626.085938.140624.171875.28125.261719.421874.234375.371094.46875.746094.695312 1.121094.125.207032.246094.414063.371094.617188.183594.3125.367187.625.550781.9375.132813.226562.261719.460937.390625.6875.167969.292968.332031.585937.492188.878906.132812.238281.261719.476562.390625.71875.152344.285156.304687.570312.457031.859375.128906.242187.253906.484375.378906.726563.148438.285156.289063.570312.433594.855468.121094.242188.246094.484375.363281.730469.03125.058594.058594.117187.085938.175781-19.976563 17.984375-45.476563 28.058594-72.53125 28.535156zm-38.722656-105.660156v-28.027344c5.714843 3.902344 11.972656 7.210938 18.484374 9.703126 9.515626 3.636718 19.460938 5.53125 28.734376 5.472656l27.289062.210937v12.640625c0 20.542969-16.710938 37.253906-37.253906 37.253906-20.539063 0-37.253906-16.714843-37.253906-37.253906zm74.507812-32.832031-27.207031-.207031c-.027344 0-.050781 0-.078125 0-.023438 0-.046875 0-.074219 0-6.761719.046875-14.234375-1.382813-21.449219-4.144532-7.269531-2.78125-14.128906-6.832031-19.839844-11.714843-3.839843-3.28125-8.308593-7.917969-11.632812-13.792969h68.414062c6.546876 0 11.871094 5.324219 11.871094 11.871094v17.988281zm0 0"/><path d="m207.234375 397.375-.226563-.070312c-5.34375-1.597657-10.96875 1.441406-12.5625 6.785156-1.597656 5.34375 1.441407 10.964844 6.78125 12.5625l.230469.066406c.960938.289062 1.933594.425781 2.890625.425781 4.347656 0 8.363282-2.832031 9.671875-7.207031 1.59375-5.34375-1.441406-10.96875-6.785156-12.5625zm0 0"/><path d="m369.195312 123.019531.226563.070313c.964844.285156 1.9375.421875 2.894531.421875 4.347656 0 8.359375-2.828125 9.667969-7.207031 1.597656-5.34375-1.441406-10.964844-6.78125-12.5625l-.230469-.066407c-5.34375-1.597656-10.964844 1.4375-12.5625 6.78125-1.59375 5.34375 1.441406 10.96875 6.785156 12.5625zm0 0"/></svg>