<svg height="512pt" viewBox="0 -38 512.00101 512" width="512pt" xmlns="http://www.w3.org/2000/svg"><path d="m436.027344 133.96875h-425.914063v-68.800781h425.914063zm0 0" fill="#ece9e8"/><path d="m230.023438 133.9375h-219.910157v291.523438h425.914063v-249.039063" fill="#fff"/><path d="m382.882812 9.121094h-130.808593c-12.179688 0-22.050781 9.871094-22.050781 22.050781v123.195313c0 12.179687 9.871093 22.054687 22.050781 22.054687h30.230469l38.496093 40.003906 34.695313-40.003906h124.335937c12.179688 0 22.054688-9.875 22.054688-22.054687v-123.191407c0-12.179687-9.875-22.054687-22.054688-22.054687h-18.515625" fill="#9ee2f8"/><g fill="#fff"><path d="m316.410156 89.992188c0 9.746093-7.902344 17.644531-17.644531 17.644531-9.746094 0-17.644531-7.898438-17.644531-17.644531 0-9.742188 7.898437-17.640626 17.644531-17.640626 9.742187 0 17.644531 7.898438 17.644531 17.640626zm0 0"/><path d="m383.597656 89.992188c0 9.746093-7.898437 17.644531-17.644531 17.644531-9.742187 0-17.640625-7.898438-17.640625-17.644531 0-9.742188 7.898438-17.640626 17.640625-17.640626 9.746094 0 17.644531 7.898438 17.644531 17.640626zm0 0"/><path d="m450.785156 89.992188c0 9.746093-7.898437 17.644531-17.640625 17.644531-9.746093 0-17.644531-7.898438-17.644531-17.644531 0-9.742188 7.898438-17.640626 17.644531-17.640626 9.742188 0 17.640625 7.898438 17.640625 17.640626zm0 0"/></g><path d="m111.011719 371.96875c-20.589844 0-39.746094-6.035156-55.878907-16.371094 2.855469.335938 5.757813.503906 8.695313.503906 17.078125 0 32.796875-5.824218 45.277344-15.605468-15.957031-.296875-29.414063-10.835938-34.054688-25.316406 2.21875.421874 4.503907.65625 6.851563.65625 3.328125 0 6.546875-.449219 9.609375-1.28125-16.824219-3.371094-29.460938-18.339844-29.242188-36.199219.003907-.003907.003907 0 .003907-.003907 4.914062 2.734376 10.53125 4.378907 16.511718 4.5625-9.785156-6.53125-16.222656-17.699218-16.222656-30.34375 0-6.675781 1.804688-12.9375 4.9375-18.320312 17.976562 22.054688 44.84375 36.558594 75.136719 38.082031-.609375-2.605469-.929688-5.320312-.945313-8.113281-.09375-17.984375 13.140625-33.617188 30.933594-36.238281 12.644531-1.863281 24.328125 2.796875 32.132812 11.109375 8.300782-1.636719 16.101563-4.671875 23.144532-8.851563-2.722656 8.515625-8.503906 15.65625-16.027344 20.167969l1.90625 9.117188c.597656 2.855468.945312 5.765624.945312 8.683593v.046875c0 48.167969-36.667968 103.714844-103.714843 103.714844" fill="#9ee2f8"/><path d="m46.261719 110.214844.21875.066406c.972656.292969 1.953125.429688 2.914062.429688 4.347657 0 8.367188-2.828126 9.683594-7.207032 1.605469-5.347656-1.425781-10.988281-6.777344-12.59375l-.21875-.066406c-5.351562-1.605469-10.988281 1.425781-12.597656 6.777344-1.605469 5.347656 1.429687 10.988281 6.777344 12.59375zm0 0"/><path d="m84.640625 110.21875.21875.066406c.96875.289063 1.949219.425782 2.910156.425782 4.351563 0 8.371094-2.828126 9.683594-7.210938 1.601563-5.351562-1.433594-10.988281-6.785156-12.59375l-.21875-.0625c-5.351563-1.609375-10.988281 1.429688-12.59375 6.78125-1.601563 5.351562 1.433593 10.988281 6.785156 12.59375zm0 0"/><path d="m123.015625 110.21875.21875.066406c.96875.289063 1.945313.425782 2.910156.425782 4.347657 0 8.367188-2.828126 9.683594-7.210938 1.601563-5.351562-1.433594-10.988281-6.785156-12.59375l-.21875-.0625c-5.355469-1.609375-10.988281 1.429688-12.59375 6.78125-1.601563 5.351562 1.433593 10.988281 6.785156 12.59375zm0 0"/><path d="m479.832031.0351562h-18.511719c-5.585937 0-10.113281 4.5273438-10.113281 10.1132818 0 5.585937 4.527344 10.113281 10.113281 10.113281h18.511719c6.585938 0 11.941407 5.355469 11.941407 11.941406v123.191406c0 6.585938-5.355469 11.941407-11.941407 11.941407h-124.335937c-2.929688 0-5.71875 1.273437-7.640625 3.488281l-27.441407 31.644531-30.820312-32.03125c-1.90625-1.980469-4.539062-3.101562-7.289062-3.101562h-30.230469c-6.582031 0-11.941407-5.355469-11.941407-11.941407v-123.191406c0-6.585937 5.355469-11.941406 11.941407-11.941406h130.804687c5.585938 0 10.113282-4.527344 10.113282-10.113281 0-5.585938-4.527344-10.1132818-10.113282-10.1132818h-130.804687c-17.734375 0-32.167969 14.4296878-32.167969 32.1679688v23.84375h-209.792969c-5.585937 0-10.113281 4.53125-10.113281 10.113281v360.328125c0 5.585938 4.527344 10.113281 10.113281 10.113281h425.914063c5.585937 0 10.113281-4.527343 10.113281-10.113281v-238.925781h33.691406c17.738281 0 32.167969-14.429688 32.167969-32.167969v-123.191406c0-17.738281-14.429688-32.1679688-32.167969-32.1679688zm-259.925781 76.2421878v48.574218h-199.679688v-48.574218zm206.007812 205.332031h-91.183593c-5.585938 0-10.113281 4.527344-10.113281 10.113281 0 5.585938 4.527343 10.113282 10.113281 10.113282h91.183593v21.628906h-123.960937c-5.585937 0-10.113281 4.53125-10.113281 10.113281 0 5.585937 4.527344 10.113281 10.113281 10.113281h123.960937v21.632813h-159.925781c-5.585937 0-10.113281 4.527343-10.113281 10.113281 0 5.582031 4.527344 10.113281 10.113281 10.113281h159.925781v30.824219h-405.6875v-271.296875h199.679688v10.316406c0 17.738281 14.433594 32.167969 32.167969 32.167969h25.929687l35.511719 36.90625c1.910156 1.984375 4.539063 3.101562 7.285156 3.101562.089844 0 .175781-.003906.261719-.003906 2.839844-.074218 5.519531-1.339844 7.378906-3.484375l31.671875-36.519531h65.800781zm0 0"/><path d="m271.007812 91.023438c0 15.304687 12.453126 27.753906 27.757813 27.753906s27.757813-12.453125 27.757813-27.753906c0-15.308594-12.453126-27.757813-27.757813-27.757813s-27.757813 12.449219-27.757813 27.757813zm35.285157 0c0 4.148437-3.375 7.527343-7.527344 7.527343s-7.53125-3.378906-7.53125-7.527343c0-4.152344 3.378906-7.53125 7.53125-7.53125s7.527344 3.378906 7.527344 7.53125zm0 0"/><path d="m365.953125 63.265625c-15.304687 0-27.753906 12.453125-27.753906 27.757813 0 15.304687 12.449219 27.753906 27.753906 27.753906s27.757813-12.453125 27.757813-27.753906c0-15.308594-12.453126-27.757813-27.757813-27.757813zm0 35.285156c-4.148437 0-7.527344-3.378906-7.527344-7.527343 0-4.152344 3.378907-7.53125 7.527344-7.53125 4.152344 0 7.53125 3.378906 7.53125 7.53125 0 4.148437-3.378906 7.527343-7.53125 7.527343zm0 0"/><path d="m433.140625 118.777344c15.308594 0 27.757813-12.453125 27.757813-27.753906 0-15.308594-12.449219-27.757813-27.757813-27.757813-15.304687 0-27.753906 12.453125-27.753906 27.757813 0 15.304687 12.449219 27.753906 27.753906 27.753906zm0-35.285156c4.152344 0 7.53125 3.378906 7.53125 7.53125 0 4.148437-3.378906 7.527343-7.53125 7.527343-4.148437 0-7.527344-3.378906-7.527344-7.527343 0-4.152344 3.378907-7.53125 7.527344-7.53125zm0 0"/><path d="m418.398438 19.800781.203124.0625c.972657.292969 1.953126.433594 2.917969.433594 4.347657 0 8.363281-2.828125 9.679688-7.203125 1.613281-5.347656-1.417969-10.988281-6.769531-12.597656l-.203126-.0625c-5.347656-1.613282-10.988281 1.421875-12.597656 6.769531s1.417969 10.988281 6.769532 12.597656zm0 0"/><path d="m227.683594 365.78125-.222656-.0625c-5.351563-1.609375-10.988282 1.425781-12.597657 6.773438-1.605469 5.351562 1.429688 10.988281 6.777344 12.597656l.222656.066406c.96875.289062 1.949219.429688 2.910157.429688 4.351562 0 8.367187-2.828126 9.683593-7.207032 1.605469-5.351562-1.425781-10.988281-6.773437-12.597656zm0 0"/><path d="m234.207031 223.359375c-3.289062-2.617187-7.847656-2.929687-11.460937-.789063-4.75 2.816407-9.804688 4.980469-15.074219 6.460938-10.101563-8.253906-23.355469-11.96875-36.523437-10.027344-21.578126 3.179688-38.027344 21.351563-39.46875 42.964844-21.972657-3.878906-42.066407-15.570312-56.339844-33.082031-2.097656-2.574219-5.328125-3.964844-8.632813-3.691407-3.308593.257813-6.28125 2.128907-7.949219 4.996094-4.128906 7.09375-6.308593 15.1875-6.308593 23.40625 0 6.230469 1.234375 12.285156 3.542969 17.855469-2.34375 1.855469-3.796876 4.699219-3.835938 7.804687-.160156 12.839844 4.9375 24.710938 13.449219 33.332032-.8125 2.117187-.902344 4.480468-.1875 6.703125 3.289062 10.269531 9.921875 18.792969 18.472656 24.507812-6.386719 2.125-13.128906 3.21875-20.0625 3.21875-2.53125 0-5.058594-.148437-7.511719-.4375-4.679687-.5625-9.121094 2.199219-10.707031 6.636719s.097656 9.378906 4.066406 11.925781c18.347657 11.753907 39.554688 17.96875 61.335938 17.96875 42.796875 0 69.621093-20.238281 84.589843-37.222656 18.582032-21.082031 29.238282-49.003906 29.238282-76.65625 0-3.460937-.390625-7.078125-1.160156-10.75l-.558594-2.683594c6.707031-5.628906 11.722656-13.042969 14.414062-21.445312 1.28125-4.003907-.042968-8.378907-3.328125-10.996094zm-123.195312 139.523437c-5.542969 0-11.035157-.488281-16.429688-1.449218 7.375-2.921875 14.347657-6.921875 20.757813-11.949219 3.371094-2.636719 4.710937-7.113281 3.355468-11.167969-1.359374-4.058594-5.125-6.824218-9.402343-6.902344-6.003907-.113281-11.609375-2.246093-16.0625-5.832031.3125-.078125.625-.160156.9375-.242187 4.527343-1.234375 7.609375-5.417969 7.453125-10.105469-.160156-4.6875-3.523438-8.648437-8.125-9.570313-7.242188-1.453124-13.289063-5.816406-17.027344-11.722656.667969.050782 1.335938.085938 2.003906.105469 4.546875.144531 8.570313-2.726563 9.945313-7.027344 1.375-4.296875-.265625-8.984375-4.019531-11.492187-6.886719-4.597656-11.167969-12.097656-11.671876-20.300782 19.167969 16.851563 43.636719 26.941407 69.402344 28.234376 3.167969.164062 6.234375-1.179688 8.269532-3.617188 2.039062-2.4375 2.808593-5.691406 2.085937-8.785156-.4375-1.882813-.667969-3.855469-.675781-5.863282-.070313-13.042968 9.515625-24.300781 22.292968-26.183593 8.792969-1.296875 17.277344 1.628906 23.285157 8.027343 1.25 1.328126 2.8125 2.273438 4.503906 2.777344-.195313 1.199219-.171875 2.449219.085937 3.6875l1.90625 9.117188c.488282 2.316406.734376 4.542968.734376 6.660156-.003907 38.867188-29.042969 93.601562-93.605469 93.601562zm0 0"/></svg>